<?xml version="1.0" encoding="UTF-8" standalone="no"?>
<svg
   width="16"
   height="16"
   version="1.1"
   id="svg1"
   sodipodi:docname="document-open-recent-symbolic.svg"
   inkscape:version="1.4.4 (dcaf3e7d9e, 2026-05-05)"
   xmlns:inkscape="http://www.inkscape.org/namespaces/inkscape"
   xmlns:sodipodi="http://sodipodi.sourceforge.net/DTD/sodipodi-0.dtd"
   xmlns="http://www.w3.org/2000/svg"
   xmlns:svg="http://www.w3.org/2000/svg">
  <sodipodi:namedview
     id="namedview1"
     pagecolor="#ffffff"
     bordercolor="#000000"
     borderopacity="0.25"
     inkscape:showpageshadow="2"
     inkscape:pageopacity="0.0"
     inkscape:pagecheckerboard="0"
     inkscape:deskcolor="#d1d1d1"
     inkscape:zoom="54.75"
     inkscape:cx="8.0091324"
     inkscape:cy="8"
     inkscape:window-width="2048"
     inkscape:window-height="1083"
     inkscape:window-x="0"
     inkscape:window-y="0"
     inkscape:window-maximized="1"
     inkscape:current-layer="svg1" />
  <defs
     id="defs1">
    <style
       id="current-color-scheme"
       type="text/css">
   .ColorScheme-Text { color:#444444; } .ColorScheme-Highlight { color:#4285f4; } .ColorScheme-NeutralText { color:#ff9800; } .ColorScheme-PositiveText { color:#4caf50; } .ColorScheme-NegativeText { color:#f44336; }
  </style>
  </defs>
  <path
     style="fill:currentColor;stroke-width:0.933327"
     class="ColorScheme-Text"
     d="M 7.9999999,1 A 7.0051426,7.0051426 0 0 0 1,8 7.0051426,7.0051426 0 0 0 7.9999999,15 7.0051426,7.0051426 0 0 0 15,8 7.0051426,7.0051426 0 0 0 7.9999999,1 Z m 0,1.8666666 A 5.1282095,5.1282096 0 0 1 13.133334,8 5.1282095,5.1282096 0 0 1 7.9999999,13.133334 5.1282095,5.1282096 0 0 1 2.8666667,8 5.1282095,5.1282096 0 0 1 7.9999999,2.8666666 Z m 2.8273441,1.8666668 a 0.46132649,0.46832997 0 0 0 -0.09479,0.00547 0.46132649,0.46832997 0 0 0 -0.231511,0.1458334 L 8.0510416,7.3729166 6.5216144,5.8216145 A 0.46132649,0.46832997 0 1 0 5.8890623,6.4651042 L 7.733854,8.3390624 a 0.46132649,0.46832997 0 0 0 0.634375,0 L 11.135416,5.528125 A 0.46132649,0.46832997 0 0 0 10.827344,4.7333334 Z"
     id="path1" />
</svg>
