<?xml version="1.0" encoding="UTF-8" standalone="no"?>
<svg
   width="16"
   height="16"
   viewBox="0 0 16 16"
   fill="none"
   version="1.1"
   id="svg3"
   sodipodi:docname="cosmic-applet-notification-new-symbolic.svg"
   inkscape:version="1.4.4 (dcaf3e7d9e, 2026-05-05)"
   xmlns:inkscape="http://www.inkscape.org/namespaces/inkscape"
   xmlns:sodipodi="http://sodipodi.sourceforge.net/DTD/sodipodi-0.dtd"
   xmlns="http://www.w3.org/2000/svg"
   xmlns:svg="http://www.w3.org/2000/svg">
  <sodipodi:namedview
     id="namedview3"
     pagecolor="#ffffff"
     bordercolor="#000000"
     borderopacity="0.25"
     inkscape:showpageshadow="2"
     inkscape:pageopacity="0.0"
     inkscape:pagecheckerboard="0"
     inkscape:deskcolor="#d1d1d1"
     inkscape:zoom="35.311875"
     inkscape:cx="5.947008"
     inkscape:cy="8.5806829"
     inkscape:current-layer="svg3" />
  <g
     clip-path="url(#clip0_412_3796)"
     id="g3">
    <path
       d="M 7.238,2.5 C 7.73373,3.2396 7.99891,4.10963 8,5 8,5.59095 7.8836,6.17611 7.65745,6.72207 7.43131,7.26804 7.09984,7.76412 6.68198,8.18198 6.26411,8.59984 5.76804,8.93131 5.22207,9.15746 4.67611,9.3836 4.09094,9.49998 3.5,9.49998 2.60984,9.49948 1.73982,9.23502 1,8.74 v 0.75998 c 0,1.108 0.892,2 2,2 h 9.99999 c 1.108,0 2,-0.892 2,-2 V 4.5 c 0,-1.108 -0.892,-2 -2,-2 z"
       fill="#232323"
       id="path1" />
    <path
       d="m 12.00005,11.4 -2,3.5 L 8,11.4 Z"
       fill="#232323"
       id="path2"
       style="stroke-width:1.08012" />
    <path
       d="m 3.4999969,1.5 c -0.92825,0 -1.81849,0.36875 -2.47487,1.02513 C 0.36874888,3.1815 0,4.07174 0,5 0,5.92826 0.36874888,6.8185 1.0251269,7.47487 1.6815069,8.13125 2.5717469,8.5 3.4999969,8.5 c 0.92826,0 1.8185,-0.36875 2.47488,-1.02513 0.65637,-0.65637 1.02512,-1.54661 1.02512,-2.47487 0,-0.92826 -0.36875,-1.8185 -1.02512,-2.47487 C 5.3184969,1.86875 4.4282569,1.5 3.4999969,1.5 Z m -0.5,1 h 1 v 3 h -1 z m 0,4 h 1 v 1 h -1 z"
       fill="#232323"
       id="path3" />
  </g>
  <defs
     id="defs3">
    <clipPath
       id="clip0_412_3796">
      <rect
         width="16"
         height="16"
         fill="white"
         transform="translate(0.00195312 0.00701904)"
         id="rect3" />
    </clipPath>
  </defs>
</svg>
