<?xml version="1.0" encoding="UTF-8" standalone="no"?>
<svg
   width="64"
   height="64"
   version="1"
   id="svg5"
   sodipodi:docname="folder-documents.svg"
   inkscape:version="1.4.4 (dcaf3e7d9e, 2026-05-05)"
   xmlns:inkscape="http://www.inkscape.org/namespaces/inkscape"
   xmlns:sodipodi="http://sodipodi.sourceforge.net/DTD/sodipodi-0.dtd"
   xmlns="http://www.w3.org/2000/svg"
   xmlns:svg="http://www.w3.org/2000/svg">
  <defs
     id="defs5" />
  <sodipodi:namedview
     id="namedview5"
     pagecolor="#ffffff"
     bordercolor="#000000"
     borderopacity="0.25"
     inkscape:showpageshadow="2"
     inkscape:pageopacity="0.0"
     inkscape:pagecheckerboard="0"
     inkscape:deskcolor="#d1d1d1"
     inkscape:zoom="10.936359"
     inkscape:cx="31.134677"
     inkscape:cy="29.808824"
     inkscape:window-width="2048"
     inkscape:window-height="1083"
     inkscape:window-x="0"
     inkscape:window-y="0"
     inkscape:window-maximized="1"
     inkscape:current-layer="svg5" />
  <rect
     style="opacity:0.2"
     width="56"
     height="36"
     x="4"
     y="22"
     rx="2.8"
     ry="2.8"
     id="rect1" />
  <path
     style="fill:#727272"
     d="M 4,46.2 C 4,47.751 5.2488,49 6.8,49 H 57.2 C 58.751,49 60,47.751 60,46.2 V 15.8 C 60,14.249 58.751,13 57.2,13 H 32 C 27.8,13 26.4,7 22.2,7 H 6.8 C 5.2488,7 4,8.2488 4,9.8"
     id="path1" />
  <rect
     style="opacity:0.2"
     width="56"
     height="36"
     x="4"
     y="20"
     rx="2.8"
     ry="2.8"
     id="rect2" />
  <rect
     style="fill:#e4e4e4"
     width="48"
     height="22"
     x="8"
     y="16"
     rx="2.8"
     ry="2.8"
     id="rect3" />
  <rect
     style="fill:#8e8e8e"
     width="56"
     height="36"
     x="4"
     y="21"
     rx="2.8"
     ry="2.8"
     id="rect4" />
  <path
     style="opacity:0.1;fill:#ffffff"
     d="M 6.8008,7 C 5.2496,7 4,8.2496 4,9.8008 V 10.801 C 4,9.2496 5.2496,8 6.8008,8 H 22.199 C 26.399,8 27.8,14 32,14 H 57.199 C 58.75,14 60,15.25 60,16.801 V 15.801 C 60,14.25 58.75,13 57.199,13 H 32 C 27.8,13 26.399,7 22.199,7 Z"
     id="path4" />
  <path
     d="m 26.666273,29 c -0.707136,0 -1.385316,0.280951 -1.885335,0.781049 C 24.280905,30.281146 24,30.959428 24,31.666668 v 14.666664 c 0,0.7072 0.280905,1.3856 0.780938,1.885601 C 25.280957,48.719066 25.959137,49 26.666273,49 h 10.66509 c 1.453119,0 2.631611,-1.165334 2.66094,-2.612002 0.01333,-1.458667 0.0067,-7.230658 0,-10.839994 -0.01226,-0.664387 -0.27236,-1.300201 -0.729225,-1.782667 l -3.958082,-3.95867 C 35.056633,29.551411 34.759477,29.348522 34.431432,29.209973 34.103307,29.071427 33.750772,29.000029 33.394612,29 Z"
     fill="#232323"
     id="path2"
     style="stroke-width:1.33324;fill:#ffffff" />
</svg>
